<svg width="30" height="30" viewBox="0 0 30 30" fill="none" xmlns="http://www.w3.org/2000/svg">
    <path fill-rule="evenodd" clip-rule="evenodd"
          d="M3 0C1.34315 0 0 1.34315 0 3V9C0 10.6569 1.34315 12 3 12H9C10.6569 12 12 10.6569 12 9V3C12 1.34315 10.6569 0 9 0H3ZM21 0C19.3431 0 18 1.34315 18 3V9C18 10.6569 19.3431 12 21 12H27C28.6569 12 30 10.6569 30 9V3C30 1.34315 28.6569 0 27 0H21ZM0 21C0 19.3431 1.34315 18 3 18H9C10.6569 18 12 19.3431 12 21V27C12 28.6569 10.6569 30 9 30H3C1.34315 30 0 28.6569 0 27V21ZM21 18C19.3431 18 18 19.3431 18 21V27C18 28.6569 19.3431 30 21 30H27C28.6569 30 30 28.6569 30 27V21C30 19.3431 28.6569 18 27 18H21Z"
          opacity="0.3"
          fill="black"/>
</svg>